<svg width="15" height="17" viewBox="0 0 15 17" fill="none" xmlns="http://www.w3.org/2000/svg">
<path d="M10.375 12.25H5.125M10.375 9.25H8.125M13.75 10C13.75 12.8282 13.75 14.2427 12.8162 15.121C11.8825 15.9992 10.3802 16 7.375 16H6.79525C4.35025 16 3.12625 16 2.27725 15.4015C2.03564 15.2321 1.81967 15.0287 1.636 14.7977C1 13.9982 1 12.8478 1 10.5453V8.6365C1 6.41425 1 5.30275 1.35175 4.4155C1.91725 2.98825 3.11275 1.86325 4.62925 1.33075C5.57125 1 6.751 1 9.1135 1C10.462 1 11.137 1 11.6755 1.189C12.5417 1.4935 13.225 2.13625 13.5483 2.9515C13.7493 3.4585 13.7493 4.09375 13.7493 5.3635L13.75 10Z" stroke="#5C5C5C" stroke-width="1.2" stroke-linecap="round" stroke-linejoin="round"/>
<path d="M1 8.5C1 7.83703 1.26337 7.2012 1.73216 6.73241C2.20095 6.26362 2.83678 6.00025 3.49975 6.00025C3.99925 6.00025 4.588 6.08725 5.07325 5.9575C5.28528 5.90044 5.47859 5.78864 5.63378 5.63331C5.78898 5.47798 5.90062 5.28458 5.9575 5.0725C6.08725 4.58725 6.00025 3.9985 6.00025 3.499C6.00045 2.83615 6.2639 2.20053 6.73267 1.73189C7.20145 1.26326 7.83715 1 8.5 1" stroke="#5C5C5C" stroke-width="1.2" stroke-linecap="round" stroke-linejoin="round"/>
</svg>
