<svg width="14" height="15" viewBox="0 0 14 15" fill="none" xmlns="http://www.w3.org/2000/svg">
<path fill-rule="evenodd" clip-rule="evenodd" d="M8.38863 0.00292969C8.69927 0.00292969 8.95109 0.254751 8.95109 0.565388V3.26219C8.95109 3.47699 9.03716 3.68501 9.19088 3.83896C9.34552 3.9927 9.55474 4.07896 9.77281 4.07888H12.8665C13.1772 4.07888 13.429 4.3307 13.429 4.64133C13.429 4.95197 13.1772 5.20379 12.8665 5.20379H9.77324C9.77317 5.20379 9.77332 5.20379 9.77324 5.20379C9.2574 5.20393 8.76231 4.99966 8.39675 4.6357L8.39588 4.63483C8.03241 4.27136 7.82617 3.77763 7.82617 3.26219V0.565388C7.82617 0.254751 8.07799 0.00292969 8.38863 0.00292969Z" fill="#5C5C5C"/>
<path fill-rule="evenodd" clip-rule="evenodd" d="M3.86664 1.12678C3.51913 1.11375 3.17246 1.16931 2.84643 1.2903C2.5204 1.41129 2.2214 1.59532 1.96652 1.8319L1.96574 1.83262L1.96574 1.83262C1.71145 2.06775 1.5062 2.35088 1.36183 2.66569C1.21878 2.97763 1.1383 3.31457 1.12492 3.65743V11.3414C1.13848 11.6866 1.21988 12.0259 1.36451 12.3397C1.51039 12.6563 1.7177 12.9408 1.97439 13.1766C2.23275 13.4131 2.53523 13.5963 2.86451 13.7156C3.19387 13.8351 3.54356 13.8883 3.89353 13.8723C3.90208 13.8719 3.91065 13.8717 3.91921 13.8717H9.61129C9.61831 13.8717 9.62534 13.8719 9.63236 13.8721C9.97987 13.8851 10.3265 13.8296 10.6526 13.7086C10.9786 13.5876 11.2776 13.4036 11.5325 13.167L11.5333 13.1663C11.7875 12.9311 11.9928 12.648 12.1372 12.3332C12.2802 12.0213 12.3607 11.6843 12.3741 11.3415V4.93262C12.3686 4.70082 12.3147 4.47272 12.2159 4.26293C12.1163 4.05151 11.9733 3.86343 11.7963 3.71091C11.7916 3.70694 11.7871 3.70289 11.7826 3.69877L9.56451 1.65901C9.18363 1.315 8.68815 1.12535 8.17488 1.12717L8.17289 1.12717H3.88771C3.88068 1.12717 3.87366 1.12704 3.86664 1.12678ZM3.89783 0.00225377C3.40632 -0.0147437 2.9162 0.0645329 2.45506 0.235659C1.99065 0.407996 1.56474 0.67011 1.20164 1.00704C0.838546 1.34286 0.545476 1.74721 0.339309 2.19678C0.133068 2.64651 0.0178698 3.13261 0.00035264 3.62707C0.000117561 3.6337 0 3.64034 0 3.64698V11.3519C0 11.3586 0.000119081 11.3653 0.000357154 11.372C0.0180948 11.8694 0.134514 12.3584 0.342852 12.8105C0.55119 13.2626 0.847292 13.6688 1.21396 14.0055L1.21457 14.0061C1.58214 14.3426 2.01253 14.6033 2.48106 14.7732C2.9454 14.9415 3.43814 15.0174 3.93154 14.9966H9.60117C10.0927 15.0136 10.5828 14.9344 11.0439 14.7632C11.5083 14.5909 11.9343 14.3288 12.2974 13.9919C12.6604 13.656 12.9535 13.2517 13.1597 12.8021C13.3659 12.3524 13.4811 11.8663 13.4986 11.3718C13.4989 11.3652 13.499 11.3585 13.499 11.3519V4.92639L13.4989 4.91479C13.4908 4.52328 13.4004 4.13786 13.2335 3.7836C13.0681 3.43225 12.8311 3.11936 12.5377 2.86492L10.3242 0.829397L10.3242 0.829384L10.3209 0.826392C9.73226 0.293593 8.96592 -0.000290255 8.17195 0.00225377H8.17289V0.564712L8.17091 0.0022573C8.17126 0.00225605 8.1716 0.00225488 8.17195 0.00225377M2.92253 4.23569C2.92253 3.92505 3.17435 3.67323 3.48499 3.67323H5.93356C6.2442 3.67323 6.49602 3.92505 6.49602 4.23569C6.49602 4.54633 6.2442 4.79815 5.93356 4.79815H3.48499C3.17435 4.79815 2.92253 4.54633 2.92253 4.23569ZM2.92253 7.5002C2.92253 7.18956 3.17435 6.93774 3.48499 6.93774H10.014C10.3246 6.93774 10.5765 7.18956 10.5765 7.5002C10.5765 7.81083 10.3246 8.06265 10.014 8.06265H3.48499C3.17435 8.06265 2.92253 7.81083 2.92253 7.5002ZM2.92253 10.7647C2.92253 10.4541 3.17435 10.2022 3.48499 10.2022H10.014C10.3246 10.2022 10.5765 10.4541 10.5765 10.7647C10.5765 11.0753 10.3246 11.3272 10.014 11.3272H3.48499C3.17435 11.3272 2.92253 11.0753 2.92253 10.7647Z" fill="#5C5C5C"/>
</svg>
