<svg width="17" height="17" viewBox="0 0 17 17" fill="none" xmlns="http://www.w3.org/2000/svg">
<path d="M16 8.5C16 9.98336 15.5601 11.4334 14.736 12.6668C13.9119 13.9001 12.7406 14.8614 11.3701 15.4291C9.99968 15.9967 8.49168 16.1453 7.03682 15.8559C5.58197 15.5665 4.2456 14.8522 3.1967 13.8033C2.14781 12.7544 1.4335 11.418 1.14411 9.96318C0.854725 8.50832 1.00325 7.00032 1.57091 5.62987C2.13856 4.25943 3.09986 3.08809 4.33323 2.26398C5.56659 1.43987 7.01664 1 8.5 1C9.95975 0.999523 11.3879 1.42504 12.6093 2.22438C13.8308 3.02371 14.7924 4.16212 15.3763 5.5M16 3.36842L15.625 5.875L13.2368 5.3421" stroke="#5C5C5C" stroke-width="1.1" stroke-linecap="round" stroke-linejoin="round"/>
<path d="M6.92054 7.71042V6.52621C6.92054 6.10745 7.08689 5.70584 7.383 5.40973C7.67911 5.11362 8.08072 4.94727 8.49949 4.94727C8.91825 4.94727 9.31986 5.11362 9.61597 5.40973C9.91208 5.70584 10.0784 6.10745 10.0784 6.52621V7.71042M7.90738 12.0525H9.09159C10.0176 12.0525 10.4811 12.0525 10.7992 11.8078C10.8814 11.7448 10.9549 11.6712 11.0179 11.5891C11.2626 11.2702 11.2626 10.8075 11.2626 9.88147C11.2626 8.95542 11.2626 8.492 11.0179 8.17384C10.9549 8.0917 10.8814 8.01818 10.7992 7.95516C10.4803 7.71042 10.0176 7.71042 9.09159 7.71042H7.90738C6.98133 7.71042 6.51791 7.71042 6.19975 7.95516C6.11761 8.01818 6.04409 8.0917 5.98107 8.17384C5.73633 8.49279 5.73633 8.95542 5.73633 9.88147C5.73633 10.8075 5.73633 11.2709 5.98107 11.5891C6.04409 11.6712 6.11761 11.7448 6.19975 11.8078C6.5187 12.0525 6.98133 12.0525 7.90738 12.0525Z" stroke="#5C5C5C" stroke-width="1.1" stroke-linecap="round" stroke-linejoin="round"/>
</svg>
