<svg width="20" height="20" viewBox="0 0 20 20" fill="none" xmlns="http://www.w3.org/2000/svg">
<path d="M1.96875 5.90909C1.96875 5.40701 2.37576 5 2.87784 5H17.4233C17.9254 5 18.3324 5.40701 18.3324 5.90909V14.0909C18.3324 14.593 17.9254 15 17.4233 15H2.87784C2.37576 15 1.96875 14.593 1.96875 14.0909V5.90909Z" fill="#D9D9D9"/>
<path d="M0 0H20V20H0V0Z" fill="white"/>
<path fill-rule="evenodd" clip-rule="evenodd" d="M17.4233 5.90909H2.87784V14.0909H17.4233V5.90909ZM2.87784 5C2.37576 5 1.96875 5.40701 1.96875 5.90909V14.0909C1.96875 14.593 2.37576 15 2.87784 15H17.4233C17.9254 15 18.3324 14.593 18.3324 14.0909V5.90909C18.3324 5.40701 17.9254 5 17.4233 5H2.87784Z" fill="#5C5C5C"/>
<path d="M7.72727 10.0004C7.72727 10.7535 7.11675 11.364 6.36364 11.364C5.61052 11.364 5 10.7535 5 10.0004C5 9.24724 5.61052 8.63672 6.36364 8.63672C7.11675 8.63672 7.72727 9.24724 7.72727 10.0004Z" fill="#5C5C5C"/>
<path d="M11.364 10.0004C11.364 10.7535 10.7535 11.364 10.0004 11.364C9.24724 11.364 8.63672 10.7535 8.63672 10.0004C8.63672 9.24724 9.24724 8.63672 10.0004 8.63672C10.7535 8.63672 11.364 9.24724 11.364 10.0004Z" fill="#5C5C5C"/>
<path d="M15.0007 10.0004C15.0007 10.7535 14.3902 11.364 13.6371 11.364C12.884 11.364 12.2734 10.7535 12.2734 10.0004C12.2734 9.24724 12.884 8.63672 13.6371 8.63672C14.3902 8.63672 15.0007 9.24724 15.0007 10.0004Z" fill="#5C5C5C"/>
</svg>
