<svg width="20" height="20" viewBox="0 0 20 20" fill="none" xmlns="http://www.w3.org/2000/svg">
<path d="M1.96973 5.90909C1.96973 5.40701 2.37674 5 2.87882 5H17.4243C17.9263 5 18.3334 5.40701 18.3334 5.90909V14.0909C18.3334 14.593 17.9263 15 17.4243 15H2.87882C2.37674 15 1.96973 14.593 1.96973 14.0909V5.90909Z" fill="#D9D9D9"/>
<path d="M0 -0.000244141H20V19.9998H0V-0.000244141Z" fill="white"/>
<path fill-rule="evenodd" clip-rule="evenodd" d="M17.4243 5.90885H2.87882V14.0907H17.4243V5.90885ZM2.87882 4.99976C2.37674 4.99976 1.96973 5.40677 1.96973 5.90885V14.0907C1.96973 14.5927 2.37674 14.9998 2.87882 14.9998H17.4243C17.9263 14.9998 18.3334 14.5927 18.3334 14.0907V5.90885C18.3334 5.40677 17.9263 4.99976 17.4243 4.99976H2.87882Z" fill="#5C5C5C"/>
<path d="M7.72727 9.99987C7.72727 10.753 7.11675 11.3635 6.36364 11.3635C5.61052 11.3635 5 10.753 5 9.99987C5 9.24675 5.61052 8.63623 6.36364 8.63623C7.11675 8.63623 7.72727 9.24675 7.72727 9.99987Z" fill="#5C5C5C"/>
<path d="M11.364 9.99987C11.364 10.753 10.7535 11.3635 10.0004 11.3635C9.24724 11.3635 8.63672 10.753 8.63672 9.99987C8.63672 9.24675 9.24724 8.63623 10.0004 8.63623C10.7535 8.63623 11.364 9.24675 11.364 9.99987Z" fill="#5C5C5C"/>
<path d="M14.9997 9.99987C14.9997 10.753 14.3892 11.3635 13.6361 11.3635C12.883 11.3635 12.2725 10.753 12.2725 9.99987C12.2725 9.24675 12.883 8.63623 13.6361 8.63623C14.3892 8.63623 14.9997 9.24675 14.9997 9.99987Z" fill="#5C5C5C"/>
</svg>
