<svg width="15" height="15" viewBox="0 0 15 15" fill="none" xmlns="http://www.w3.org/2000/svg">
<path fill-rule="evenodd" clip-rule="evenodd" d="M3.63402 11.1342C2.22417 11.1342 1.08247 12.2759 1.08247 13.6858V14.459C1.08247 14.7579 0.840154 15.0002 0.541237 15.0002C0.24232 15.0002 0 14.7579 0 14.459V13.6858C0 11.6781 1.62634 10.0518 3.63402 10.0518H6.7268C8.73448 10.0518 10.3608 11.6781 10.3608 13.6858V14.459C10.3608 14.7579 10.1185 15.0002 9.81959 15.0002C9.52067 15.0002 9.27835 14.7579 9.27835 14.459V13.6858C9.27835 12.2759 8.13665 11.1342 6.7268 11.1342H3.63402Z" fill="#5C5C5C"/>
<path fill-rule="evenodd" clip-rule="evenodd" d="M5.18114 4.17525C4.19655 4.17525 3.40279 4.96901 3.40279 5.9536C3.40279 6.93819 4.19655 7.73195 5.18114 7.73195C6.16573 7.73195 6.95949 6.93819 6.95949 5.9536C6.95949 4.96901 6.16573 4.17525 5.18114 4.17525ZM2.32031 5.9536C2.32031 4.37118 3.59872 3.09277 5.18114 3.09277C6.76356 3.09277 8.04196 4.37118 8.04196 5.9536C8.04196 7.53602 6.76356 8.81442 5.18114 8.81442C3.59872 8.81442 2.32031 7.53602 2.32031 5.9536Z" fill="#5C5C5C"/>
<path fill-rule="evenodd" clip-rule="evenodd" d="M9.43782 0.158525C9.64919 -0.0528416 9.99188 -0.0528416 10.2032 0.158525L14.8424 4.7977C15.0538 5.00907 15.0538 5.35176 14.8424 5.56312C14.6311 5.77449 14.2884 5.77449 14.077 5.56312L9.43782 0.923949C9.22646 0.712583 9.22646 0.369891 9.43782 0.158525Z" fill="#5C5C5C"/>
<path fill-rule="evenodd" clip-rule="evenodd" d="M14.8424 0.158525C15.0538 0.369891 15.0538 0.712583 14.8424 0.923949L10.2032 5.56312C9.99188 5.77449 9.64919 5.77449 9.43782 5.56312C9.22646 5.35176 9.22646 5.00907 9.43782 4.7977L14.077 0.158525C14.2884 -0.0528416 14.6311 -0.0528416 14.8424 0.158525Z" fill="#5C5C5C"/>
</svg>
