<svg width="10" height="13" viewBox="0 0 10 13" fill="none" xmlns="http://www.w3.org/2000/svg">
<path d="M9.90889 5.96892C9.81814 5.81001 9.66569 5.72241 9.4766 5.72241C9.12559 5.72373 8.7032 5.86921 8.3743 6.10185C8.07088 6.31644 7.63102 6.71415 7.25979 7.39226C7.1901 7.51947 7.07576 7.60575 6.95342 7.62621C6.953 7.59672 6.95321 7.56305 6.95321 7.53135C6.95321 7.46313 6.95342 7.38213 6.95069 7.29277V2.42102C6.95069 1.9355 6.57294 1.54065 6.10844 1.54065C5.64393 1.54065 5.26618 1.9355 5.26618 2.42102V5.83246C5.26618 5.89298 5.21881 5.9425 5.1609 5.9425C5.103 5.9425 5.05562 5.89298 5.05562 5.83246V0.880371C5.05562 0.394846 4.67787 0 4.21337 0C3.74887 0 3.37111 0.394846 3.37111 0.880371V5.83246C3.37111 5.89298 3.32374 5.9425 3.26583 5.9425C3.20793 5.9425 3.16055 5.89298 3.16055 5.83246V1.87079C3.16055 1.44601 2.82997 1.10046 2.42358 1.10046C2.01719 1.10046 1.68661 1.44601 1.68661 1.87079V6.27264C1.68661 6.33317 1.63923 6.38269 1.58133 6.38269C1.52342 6.38269 1.47605 6.33317 1.47605 6.27264V3.52148C1.47605 3.09671 1.14546 2.75116 0.736971 2.75116C0.330584 2.75116 0 3.09671 0 3.52148L0.000421126 9.50735C0.204246 12.5849 2.01025 13 3.75013 13C5.19164 13 6.4864 12.2526 7.12482 11.0579C7.20694 10.9192 7.42909 10.5543 7.6925 10.1216C8.35114 9.04031 8.90282 8.13177 8.98431 7.97022C9.16602 7.61059 9.36879 7.32953 9.57051 7.15742C9.75307 7.00159 9.86467 6.80285 9.95542 6.62831C10.0022 6.53764 10.043 6.2042 9.90889 5.96892Z" fill="#252525"/>
</svg>
