<svg width="15" height="15" viewBox="0 0 15 15" fill="none" xmlns="http://www.w3.org/2000/svg">
<path d="M9.15039 10.376C9.15039 8.83107 10.4574 7.62549 12.0099 7.62549C13.5625 7.62549 14.8695 8.83031 14.8695 10.376C14.8695 11.6586 14.2022 12.7658 13.5991 13.5131C13.2614 13.93 12.8845 14.3135 12.4736 14.6584L12.3912 14.7255L12.3683 14.7438L12.3607 14.7499L12.3584 14.7515H12.3576L11.6927 14.7736L11.6912 14.772L11.6889 14.7705L11.6813 14.7652L11.6561 14.7484L11.5715 14.6874C11.1514 14.37 10.7681 14.0068 10.4284 13.6046C9.81075 12.868 9.15115 11.7608 9.15115 10.376M11.6927 14.7736L12.0328 15L12.3576 14.753L11.6927 14.7736ZM11.9932 13.5596C12.1907 13.3766 12.4507 13.115 12.7099 12.7948C13.2506 12.1253 13.7264 11.272 13.7264 10.376C13.7264 9.51431 12.9852 8.7693 12.0107 8.7693C11.0369 8.7693 10.295 9.51431 10.295 10.376C10.295 11.3879 10.7792 12.2419 11.3053 12.868C11.515 13.1172 11.7451 13.3485 11.9932 13.5596ZM12.0099 10.6757C12.0605 10.6757 12.109 10.6556 12.1447 10.6198C12.1805 10.5841 12.2006 10.5356 12.2006 10.485C12.2006 10.4345 12.1805 10.386 12.1447 10.3502C12.109 10.3145 12.0605 10.2944 12.0099 10.2944C11.9594 10.2944 11.9109 10.3145 11.8751 10.3502C11.8394 10.386 11.8193 10.4345 11.8193 10.485C11.8193 10.5356 11.8394 10.5841 11.8751 10.6198C11.9109 10.6556 11.9594 10.6757 12.0099 10.6757ZM11.0568 10.485C11.0568 10.2322 11.1572 9.98978 11.3359 9.81103C11.5147 9.63227 11.7571 9.53185 12.0099 9.53185C12.2627 9.53185 12.5052 9.63227 12.6839 9.81103C12.8627 9.98978 12.9631 10.2322 12.9631 10.485C12.9631 10.7378 12.8627 10.9803 12.6839 11.159C12.5052 11.3378 12.2627 11.4382 12.0099 11.4382C11.7571 11.4382 11.5147 11.3378 11.3359 11.159C11.1572 10.9803 11.0568 10.7378 11.0568 10.485Z" fill="#5C5C5C"/>
<path fill-rule="evenodd" clip-rule="evenodd" d="M5.91052 1.14382C4.91693 1.14382 4.13608 1.92619 4.13608 2.85954C4.13608 3.79289 4.91616 4.57526 5.91052 4.57526C6.90488 4.57526 7.68572 3.79289 7.68572 2.85954C7.68572 1.92619 6.90488 1.14382 5.91052 1.14382ZM2.99227 2.85954C2.99227 1.26582 4.31299 0 5.91205 0C7.51034 0 8.83106 1.26582 8.83106 2.85954C8.83106 4.45326 7.51034 5.71908 5.91205 5.71908C4.31376 5.71908 2.98998 4.45326 2.98998 2.85954M3.98129 7.40888C3.84174 7.31966 3.73727 7.31432 3.68847 7.32728C3.57866 7.35779 3.46962 7.39032 3.36134 7.42489L2.61099 7.66509C2.35394 7.74425 2.11886 7.88222 1.92442 8.06806C1.72998 8.25389 1.58152 8.48249 1.49082 8.7357C1.47051 8.80326 1.45747 8.87279 1.45193 8.94311L1.15377 11.7638L1.15225 11.7737C1.09506 12.1755 1.30933 12.4828 1.63494 12.5591C2.4562 12.7497 3.83945 12.9632 5.90976 12.9632C6.06144 12.9632 6.20691 13.0235 6.31416 13.1308C6.42141 13.238 6.48167 13.3835 6.48167 13.5352C6.48167 13.6868 6.42141 13.8323 6.31416 13.9396C6.20691 14.0468 6.06144 14.1071 5.90976 14.1071C3.76091 14.1071 2.28996 13.8844 1.37644 13.6724C0.393517 13.4444 -0.104424 12.521 0.0183453 11.6235L0.314212 8.82263C0.327938 8.69147 0.352339 8.52905 0.410293 8.36206C0.559013 7.94104 0.803757 7.56046 1.12512 7.25048C1.44649 6.94049 1.83565 6.70962 2.26175 6.57618L3.01286 6.33521C3.13639 6.29607 3.26043 6.25921 3.38498 6.22465C3.85089 6.09654 4.29393 6.24981 4.602 6.44883C4.88414 6.63184 5.34471 6.85222 5.90976 6.85222C6.47404 6.85222 6.93462 6.63108 7.21676 6.44807C7.52406 6.24981 7.96786 6.09654 8.43378 6.22465C8.55833 6.25921 8.68237 6.29607 8.8059 6.33521L9.55701 6.57618C9.63 6.59786 9.69793 6.6339 9.75681 6.68218C9.81569 6.73047 9.86433 6.79002 9.89989 6.85735C9.93544 6.92469 9.95719 6.99844 9.96387 7.0743C9.97054 7.15015 9.962 7.22657 9.93874 7.29907C9.91549 7.37158 9.87799 7.43871 9.82844 7.49654C9.7789 7.55436 9.7183 7.6017 9.65022 7.63579C9.58213 7.66989 9.50792 7.69004 9.43194 7.69507C9.35597 7.7001 9.27975 7.68991 9.20776 7.66509L8.45742 7.42489C8.34879 7.39013 8.23947 7.35759 8.12952 7.32728C8.08148 7.31432 7.97702 7.31966 7.83823 7.40888C7.44705 7.66204 6.77067 7.99604 5.909 7.99604C5.04732 7.99604 4.37247 7.66204 3.98129 7.40888Z" fill="#5C5C5C"/>
</svg>
