<svg width="15" height="16" viewBox="0 0 15 16" fill="none" xmlns="http://www.w3.org/2000/svg">
<path d="M6.45574 12.0232L11.2349 13.1055C11.4187 13.1581 11.6128 13.1627 11.7989 13.119C11.9849 13.0752 12.1566 12.9845 12.2977 12.8556C12.4388 12.7266 12.5444 12.5637 12.6046 12.3823C12.6649 12.2009 12.6776 12.0071 12.6417 11.8194C12.562 10.9986 11.7623 9.85475 11.9664 8.95365C12.4193 6.95356 12.5385 6.42721 11.8195 5.02788C11.5864 4.57708 11.2606 4.1807 10.8634 3.86478L10.3743 3.47366C10.2947 3.39713 10.232 3.30478 10.1902 3.20257C10.1484 3.10035 10.1285 2.99052 10.1317 2.88014C10.1574 2.51148 10.042 2.14683 9.80879 1.86014C9.57559 1.57346 9.24207 1.38621 8.87589 1.33636C8.52811 1.23535 8.15517 1.2676 7.82989 1.42681C7.50462 1.58602 7.25037 1.86077 7.11681 2.19739C7.06731 2.30112 6.99562 2.3927 6.90681 2.46566C6.818 2.53862 6.71424 2.59116 6.60288 2.61958L5.99298 2.76182C5.49867 2.87595 5.03409 3.09332 4.62972 3.39967C3.37875 4.35289 3.25956 4.87923 2.80661 6.87933C2.60255 7.78043 1.45452 8.38659 1.01863 9.13854C0.755568 9.5932 0.425969 10.6577 1.70112 10.9465L6.45574 12.0232Z" stroke="#5C5C5C" stroke-width="1.5" stroke-linecap="round" stroke-linejoin="round"/>
<path d="M8.7457 12.5415C8.68324 12.8452 8.56008 13.1332 8.38359 13.3882C8.20711 13.6432 7.98095 13.8599 7.71867 14.0253C7.45639 14.1907 7.1634 14.3014 6.85727 14.3509C6.55115 14.4003 6.2382 14.3874 5.93719 14.3129C5.63329 14.2508 5.3451 14.1279 5.08996 13.9515C4.83482 13.7751 4.61801 13.5489 4.45259 13.2865C4.28716 13.0242 4.17654 12.731 4.12738 12.4248C4.07822 12.1185 4.09154 11.8055 4.16653 11.5045" stroke="#5C5C5C" stroke-width="1.5" stroke-linecap="round" stroke-linejoin="round"/>
</svg>
