<svg width="14" height="15" viewBox="0 0 14 15" fill="none" xmlns="http://www.w3.org/2000/svg">
<path fill-rule="evenodd" clip-rule="evenodd" d="M0.237481 0.237481C0.389537 0.0854246 0.59577 0 0.810811 0H8.68378C8.89867 0.000189325 9.10504 0.0856714 9.25694 0.23766L11.3838 2.36451C11.3837 2.36445 11.3838 2.36457 11.3838 2.36451C11.4592 2.43985 11.5191 2.52949 11.5599 2.62797C11.6007 2.72653 11.6217 2.83217 11.6216 2.93883V7.16216C11.6216 7.38606 11.4401 7.56757 11.2162 7.56757C10.9923 7.56757 10.8108 7.38606 10.8108 7.16216V2.93851L8.68361 0.810989L0.810811 0.810811V13.5135H6.48649C6.71039 13.5135 6.89189 13.695 6.89189 13.9189C6.89189 14.1428 6.71039 14.3243 6.48649 14.3243H0.810811C0.595771 14.3243 0.389538 14.2389 0.237481 14.0868C0.0854241 13.9348 0 13.7286 0 13.5135V0.810811C0 0.59577 0.0854246 0.389537 0.237481 0.237481ZM2.7027 3.10811C2.7027 2.88421 2.88421 2.7027 3.10811 2.7027H5.81081C6.03471 2.7027 6.21622 2.88421 6.21622 3.10811C6.21622 3.33201 6.03471 3.51351 5.81081 3.51351H3.10811C2.88421 3.51351 2.7027 3.33201 2.7027 3.10811ZM2.7027 5.81081C2.7027 5.58691 2.88421 5.40541 3.10811 5.40541H8.51351C8.73741 5.40541 8.91892 5.58691 8.91892 5.81081C8.91892 6.03471 8.73741 6.21622 8.51351 6.21622H3.10811C2.88421 6.21622 2.7027 6.03471 2.7027 5.81081ZM2.7027 8.51351C2.7027 8.28961 2.88421 8.10811 3.10811 8.10811H5.13514C5.35903 8.10811 5.54054 8.28961 5.54054 8.51351C5.54054 8.73741 5.35903 8.91892 5.13514 8.91892H3.10811C2.88421 8.91892 2.7027 8.73741 2.7027 8.51351Z" fill="#5C5C5C"/>
<path fill-rule="evenodd" clip-rule="evenodd" d="M8.51283 0C8.73673 0 8.91823 0.181506 8.91823 0.405405V2.7027H11.2155C11.4394 2.7027 11.6209 2.88421 11.6209 3.10811C11.6209 3.33201 11.4394 3.51351 11.2155 3.51351H8.91823C8.70319 3.51351 8.49696 3.42809 8.3449 3.27603C8.19285 3.12398 8.10742 2.91774 8.10742 2.7027V0.405405C8.10742 0.181506 8.28893 0 8.51283 0ZM11.1104 9.66659C10.9576 9.6278 10.7978 9.6278 10.645 9.66659L8.92306 10.1038C8.98027 11.9607 9.54046 12.9839 10.0417 13.5375C10.2957 13.818 10.5429 13.9874 10.7207 14.0853C10.7822 14.1191 10.8354 14.1444 10.8777 14.1628C10.92 14.1444 10.9732 14.1191 11.0346 14.0853C11.2125 13.9874 11.4597 13.818 11.7137 13.5375C12.2149 12.9839 12.7751 11.9607 12.8323 10.1038L11.1104 9.66659ZM12.8367 10.1049L12.8399 10.0951L12.9372 9.71216M10.8777 14.5946L10.982 14.9864C10.9136 15.0045 10.8417 15.0045 10.7734 14.9864L10.8777 14.5946ZM10.4455 8.88071C10.7292 8.80868 11.0262 8.80868 11.3099 8.88071L13.0369 9.31923C13.3954 9.41086 13.6541 9.73876 13.6431 10.1186C13.5825 12.1464 12.9636 13.365 12.3147 14.0817C11.9931 14.4369 11.6721 14.66 11.4256 14.7956C11.3025 14.8634 11.198 14.9094 11.1212 14.9392C11.0828 14.9541 11.0512 14.9651 11.0277 14.9727C11.0159 14.9765 11.0061 14.9795 10.9984 14.9817L10.9886 14.9846L10.9849 14.9856L10.9833 14.986L10.982 14.9864C10.9816 14.9864 10.982 14.9864 10.8777 14.5946C10.7734 14.9864 10.7737 14.9864 10.7734 14.9864L10.7721 14.986L10.7705 14.9856L10.7668 14.9846L10.7569 14.9817C10.7493 14.9795 10.7395 14.9765 10.7277 14.9727C10.7042 14.9651 10.6726 14.9541 10.6342 14.9392C10.5574 14.9094 10.4529 14.8634 10.3298 14.7956C10.0833 14.66 9.76224 14.4369 9.44068 14.0817C8.79176 13.365 8.17291 12.1467 8.11233 10.1189L8.11222 10.115C8.1085 9.93338 8.16645 9.75581 8.27658 9.61128C8.38671 9.46675 8.54254 9.36379 8.71868 9.31917L10.4455 8.88071Z" fill="#5C5C5C"/>
</svg>
