<svg width="14" height="15" viewBox="0 0 14 15" fill="none" xmlns="http://www.w3.org/2000/svg">
<path d="M7 0C6.45983 0 5.86542 0.155769 5.35908 0.306346C4.86267 0.455192 4.49808 0.608654 4.48408 0.612692H4.46658L2.78892 1.17231L2.73408 1.18962C2.66021 1.21009 2.5874 1.23416 2.51592 1.26173L2.33333 1.31654V1.335C1.84567 1.54212 1.08208 1.99038 0.638167 2.92154C0.0344166 4.18269 0 5.75077 0 5.75077V6.92308H2.33333V15H11.6667V6.92308H14V5.715C14 5.715 13.9498 5.22635 13.8542 4.63327C13.7585 4.04077 13.6605 3.38712 13.3257 2.86673C12.9209 2.22765 12.3473 1.71016 11.6667 1.37019V1.31596L11.4298 1.24385C11.3954 1.22827 11.4024 1.2375 11.375 1.22596L11.2653 1.18962L9.534 0.612692H9.51533C9.50192 0.608654 9.13733 0.455192 8.64033 0.306923C8.13458 0.155769 7.54075 0 7 0ZM7 1.15385C7.25317 1.15385 7.83183 1.28654 8.29442 1.42442C8.41517 1.46019 8.40817 1.4625 8.51317 1.49654C8.47642 1.55019 8.449 1.60212 8.4035 1.65865C8.1305 1.99442 7.74725 2.30769 7 2.30769C6.25275 2.30769 5.8695 1.99442 5.5965 1.65865C5.551 1.60212 5.52358 1.55019 5.48683 1.49654C5.59183 1.4625 5.58483 1.46019 5.70558 1.42442C6.16817 1.28654 6.74683 1.15385 7 1.15385ZM4.33825 1.85712C4.42517 2.02154 4.53658 2.1975 4.68475 2.37981C4.96291 2.72145 5.31576 2.99627 5.71677 3.18363C6.11778 3.37099 6.55652 3.46601 7 3.46154C8.11183 3.46154 8.88417 2.90942 9.31525 2.37981C9.46342 2.1975 9.57483 2.02154 9.66117 1.85712L10.5 2.14558V13.8462H3.5V2.14558L4.33825 1.85712ZM2.33333 2.63192V5.76923H1.16667C1.169 5.7375 1.25767 4.34019 1.69517 3.42519C1.83928 3.11341 2.05838 2.84125 2.33333 2.6325V2.63192ZM11.6667 2.7225C11.8807 2.90019 12.1176 3.13212 12.341 3.47942C12.4343 3.62596 12.6169 4.27269 12.7056 4.81385C12.7902 5.325 12.8287 5.72423 12.8333 5.76923H11.6667V2.7225Z" fill="#5C5C5C"/>
</svg>
