<svg width="19" height="13" viewBox="0 0 19 13" fill="none" xmlns="http://www.w3.org/2000/svg">
<path d="M5.25078 12.0499C5.70165 12.0499 6.13405 11.8708 6.45286 11.552C6.77167 11.2332 6.95078 10.8008 6.95078 10.3499C6.95078 9.89903 6.77167 9.46663 6.45286 9.14782C6.13405 8.82901 5.70165 8.6499 5.25078 8.6499C4.79991 8.6499 4.36751 8.82901 4.0487 9.14782C3.72989 9.46663 3.55078 9.89903 3.55078 10.3499C3.55078 10.8008 3.72989 11.2332 4.0487 11.552C4.36751 11.8708 4.79991 12.0499 5.25078 12.0499ZM13.7508 12.0499C14.2016 12.0499 14.6341 11.8708 14.9529 11.552C15.2717 11.2332 15.4508 10.8008 15.4508 10.3499C15.4508 9.89903 15.2717 9.46663 14.9529 9.14782C14.6341 8.82901 14.2016 8.6499 13.7508 8.6499C13.2999 8.6499 12.8675 8.82901 12.5487 9.14782C12.2299 9.46663 12.0508 9.89903 12.0508 10.3499C12.0508 10.8008 12.2299 11.2332 12.5487 11.552C12.8675 11.8708 13.2999 12.0499 13.7508 12.0499Z" stroke="#5C5C5C" stroke-width="1.5" stroke-miterlimit="1.5" stroke-linecap="round" stroke-linejoin="round"/>
<path d="M11.2 10.35V1.51C11.2 1.37474 11.1463 1.24502 11.0506 1.14938C10.955 1.05373 10.8253 1 10.69 1H1.51C1.37474 1 1.24502 1.05373 1.14938 1.14938C1.05373 1.24502 1 1.37474 1 1.51V9.84C1 9.90697 1.01319 9.97329 1.03882 10.0352C1.06445 10.097 1.10202 10.1533 1.14938 10.2006C1.19673 10.248 1.25296 10.2855 1.31483 10.3112C1.37671 10.3368 1.44303 10.35 1.51 10.35H3.2525M11.2 10.35H6.9925M11.2 10.35H12.05M11.2 3.55H15.9685C16.0671 3.55002 16.1635 3.57862 16.2462 3.63232C16.3289 3.68603 16.3942 3.76254 16.4343 3.8526L17.9558 7.2764C17.9848 7.34141 17.9998 7.41177 18 7.48295V9.84C18 9.90697 17.9868 9.97329 17.9612 10.0352C17.9355 10.097 17.898 10.1533 17.8506 10.2006C17.8033 10.248 17.747 10.2855 17.6852 10.3112C17.6233 10.3368 17.557 10.35 17.49 10.35H15.875" stroke="#5C5C5C" stroke-width="1.5" stroke-linecap="round"/>
</svg>
