<svg width="19" height="13" viewBox="0 0 19 13" fill="none" xmlns="http://www.w3.org/2000/svg">
<path d="M5.2498 12.0499C5.70067 12.0499 6.13307 11.8708 6.45189 11.552C6.7707 11.2332 6.9498 10.8008 6.9498 10.3499C6.9498 9.89903 6.7707 9.46663 6.45189 9.14782C6.13307 8.82901 5.70067 8.6499 5.2498 8.6499C4.79894 8.6499 4.36653 8.82901 4.04772 9.14782C3.72891 9.46663 3.5498 9.89903 3.5498 10.3499C3.5498 10.8008 3.72891 11.2332 4.04772 11.552C4.36653 11.8708 4.79894 12.0499 5.2498 12.0499ZM13.7498 12.0499C14.2007 12.0499 14.6331 11.8708 14.9519 11.552C15.2707 11.2332 15.4498 10.8008 15.4498 10.3499C15.4498 9.89903 15.2707 9.46663 14.9519 9.14782C14.6331 8.82901 14.2007 8.6499 13.7498 8.6499C13.2989 8.6499 12.8665 8.82901 12.5477 9.14782C12.2289 9.46663 12.0498 9.89903 12.0498 10.3499C12.0498 10.8008 12.2289 11.2332 12.5477 11.552C12.8665 11.8708 13.2989 12.0499 13.7498 12.0499Z" stroke="#5C5C5C" stroke-width="1.5" stroke-miterlimit="1.5" stroke-linecap="round" stroke-linejoin="round"/>
<path d="M11.2 10.35V1.51C11.2 1.37474 11.1463 1.24502 11.0506 1.14938C10.955 1.05373 10.8253 1 10.69 1H1.51C1.37474 1 1.24502 1.05373 1.14938 1.14938C1.05373 1.24502 1 1.37474 1 1.51V9.84C1 9.90697 1.01319 9.97329 1.03882 10.0352C1.06445 10.097 1.10202 10.1533 1.14938 10.2006C1.19673 10.248 1.25296 10.2855 1.31483 10.3112C1.37671 10.3368 1.44303 10.35 1.51 10.35H3.2525M11.2 10.35H6.9925M11.2 10.35H12.05M11.2 3.55H15.9685C16.0671 3.55002 16.1635 3.57862 16.2462 3.63232C16.3289 3.68603 16.3942 3.76254 16.4343 3.8526L17.9558 7.2764C17.9848 7.34141 17.9998 7.41177 18 7.48295V9.84C18 9.90697 17.9868 9.97329 17.9612 10.0352C17.9355 10.097 17.898 10.1533 17.8506 10.2006C17.8033 10.248 17.747 10.2855 17.6852 10.3112C17.6233 10.3368 17.557 10.35 17.49 10.35H15.875" stroke="#5C5C5C" stroke-width="1.5" stroke-linecap="round"/>
</svg>
