<svg width="14" height="14" viewBox="0 0 14 14" fill="none" xmlns="http://www.w3.org/2000/svg">
<path d="M8.4 6.3C8.98333 6.3 9.47917 6.09583 9.8875 5.6875C10.2958 5.27916 10.5 4.78333 10.5 4.2C10.5 3.61666 10.2958 3.12083 9.8875 2.7125C9.47917 2.30417 8.98333 2.1 8.4 2.1C7.81667 2.1 7.32083 2.30417 6.9125 2.7125C6.50417 3.12083 6.3 3.61666 6.3 4.2C6.3 4.78333 6.50417 5.27916 6.9125 5.6875C7.32083 6.09583 7.81667 6.3 8.4 6.3ZM4.2 9.62499C4.725 9.00666 5.355 8.53136 6.09 8.19909C6.825 7.86683 7.595 7.70046 8.4 7.69999C9.205 7.69953 9.975 7.86589 10.71 8.19909C11.445 8.53229 12.075 9.00759 12.6 9.62499V1.4H4.2V9.62499ZM4.2 11.2C3.815 11.2 3.48553 11.063 3.2116 10.7891C2.93767 10.5152 2.80047 10.1855 2.8 9.79999V1.4C2.8 1.015 2.9372 0.685533 3.2116 0.4116C3.486 0.137667 3.81547 0.000466666 4.2 0H12.6C12.985 0 13.3147 0.1372 13.5891 0.4116C13.8635 0.686 14.0005 1.01547 14 1.4V9.79999C14 10.185 13.863 10.5147 13.5891 10.7891C13.3152 11.0635 12.9855 11.2005 12.6 11.2H4.2ZM1.4 14C1.015 14 0.685533 13.863 0.4116 13.5891C0.137667 13.3152 0.000466667 12.9855 0 12.6V3.5C0 3.30166 0.0672001 3.13553 0.2016 3.0016C0.336 2.86766 0.502133 2.80046 0.7 2.8C0.897867 2.79953 1.06423 2.86673 1.1991 3.0016C1.33397 3.13646 1.40093 3.3026 1.4 3.5V12.6H10.5C10.6983 12.6 10.8647 12.6672 10.9991 12.8016C11.1335 12.936 11.2005 13.1021 11.2 13.3C11.1995 13.4979 11.1323 13.6642 10.9984 13.7991C10.8645 13.934 10.6983 14.0009 10.5 14H1.4ZM8.4 4.9C8.20167 4.9 8.03553 4.8328 7.9016 4.6984C7.76767 4.564 7.70047 4.39786 7.7 4.2C7.69953 4.00213 7.76673 3.836 7.9016 3.7016C8.03647 3.5672 8.2026 3.5 8.4 3.5C8.5974 3.5 8.76377 3.5672 8.8991 3.7016C9.03443 3.836 9.1014 4.00213 9.1 4.2C9.0986 4.39786 9.0314 4.56423 8.8984 4.6991C8.7654 4.83396 8.59927 4.90093 8.4 4.9ZM6.09 9.79999H10.71C10.3717 9.56666 10.0042 9.39166 9.6075 9.27499C9.21083 9.15833 8.80833 9.09999 8.4 9.09999C7.99167 9.09999 7.58917 9.15833 7.1925 9.27499C6.79583 9.39166 6.42833 9.56666 6.09 9.79999Z" fill="#5C5C5C"/>
</svg>
